<svg xmlns="http://www.w3.org/2000/svg" viewBox="0 0 1200 630">
  <defs>
    <linearGradient id="bg" x1="0" y1="0" x2="1" y2="1">
      <stop offset="0%" stop-color="#050914"/>
      <stop offset="100%" stop-color="#0e1b40"/>
    </linearGradient>
    <linearGradient id="sw" x1="0" y1="0" x2="1" y2="0">
      <stop offset="0%" stop-color="#0891b2"/>
      <stop offset="100%" stop-color="#22d3ee"/>
    </linearGradient>
  </defs>
  <rect width="1200" height="630" fill="url(#bg)"/>
  <g opacity="0.15" stroke="#22d3ee">
    <path d="M0 100 H1200 M0 200 H1200 M0 300 H1200 M0 400 H1200 M0 500 H1200" stroke-width="1"/>
  </g>
  <g transform="translate(120,175)">
    <path d="M140 0 L260 60 V160 C260 235 200 275 140 300 C80 275 20 235 20 160 V60 Z" fill="#0a1330" stroke="#164066" stroke-width="3"/>
    <circle cx="140" cy="120" r="34" fill="none" stroke="#22d3ee" stroke-width="12"/>
    <rect x="122" y="150" width="36" height="60" rx="10" fill="#22d3ee"/>
    <path d="M0 210 C60 270 220 270 280 200" fill="none" stroke="url(#sw)" stroke-width="16" stroke-linecap="round"/>
  </g>
  <text x="460" y="290" font-family="Arial" font-weight="800" font-size="70" fill="#e6f6fb">Cyber<tspan fill="#22d3ee">Qunit</tspan></text>
  <text x="462" y="335" font-family="Arial" font-weight="600" font-size="24" fill="#7fb8c9">AI-Powered Security Audits · GRC · vCISO · Cyber Education</text>
  <text x="462" y="380" font-family="Arial" font-weight="500" font-size="20" fill="#4f7285">A brand of Qunit Technologies Pvt Ltd</text>
</svg>
