<svg xmlns="http://www.w3.org/2000/svg" viewBox="0 0 800 360" role="img" aria-label="AI and LLM security">
<defs><linearGradient id="g" x1="0" y1="0" x2="1" y2="1"><stop offset="0" stop-color="#0a1330"/><stop offset="1" stop-color="#132555"/></linearGradient></defs>
<rect width="800" height="360" fill="url(#g)"/>
<g stroke="#22d3ee" stroke-opacity=".07"><path d="M0 90H800M0 180H800M0 270H800M160 0V360M320 0V360M480 0V360M640 0V360"/></g>
<circle cx="660" cy="90" r="140" fill="#22d3ee" fill-opacity=".05"/>
<g stroke="#22d3ee" stroke-width="3" fill="#0a1330"><circle cx="620" cy="150" r="16"/><circle cx="700" cy="110" r="12"/><circle cx="710" cy="200" r="12"/><circle cx="640" cy="230" r="10"/><path d="M620 150 700 110M620 150 710 200M620 150 640 230" stroke-opacity=".6"/></g>
<rect x="48" y="54" rx="17" width="196" height="36" fill="#22d3ee" fill-opacity=".15" stroke="#22d3ee" stroke-opacity=".45"/>
<text x="66" y="78" font-family="Arial" font-size="17" font-weight="700" letter-spacing="1" fill="#67e8f9">AI &amp; LLM SECURITY</text>
<text x="48" y="200" font-family="Arial" font-size="52" font-weight="700" fill="#e6f6fb">OWASP LLM Top 10</text>
<text x="50" y="242" font-family="Arial" font-size="22" fill="#9fc3d6">Securing the AI you ship</text>
<text x="48" y="322" font-family="Arial" font-size="18" font-weight="700" fill="#e6f6fb">Cyber<tspan fill="#22d3ee">Qunit</tspan></text>
</svg>
